<svg width="37" height="37" viewBox="0 0 37 37" fill="none" xmlns="http://www.w3.org/2000/svg">
<g clip-path="url(#clip0_508_180)">
<path d="M6.16667 23.125C6.54427 23.125 6.90873 23.2637 7.19091 23.5146C7.47309 23.7655 7.65336 24.1113 7.69754 24.4863L7.70833 24.6667V29.2917H13.875C14.2679 29.2921 14.6459 29.4426 14.9316 29.7123C15.2173 29.9821 15.3893 30.3507 15.4123 30.743C15.4353 31.1352 15.3077 31.5215 15.0555 31.8228C14.8033 32.1241 14.4456 32.3178 14.0554 32.3642L13.875 32.375H7.70833C6.93044 32.3752 6.18121 32.0815 5.61082 31.5525C5.04043 31.0236 4.69105 30.2986 4.63271 29.5229L4.625 29.2917V24.6667C4.625 24.2578 4.78743 23.8657 5.07654 23.5765C5.36566 23.2874 5.75779 23.125 6.16667 23.125ZM30.8333 23.125C31.2422 23.125 31.6343 23.2874 31.9235 23.5765C32.2126 23.8657 32.375 24.2578 32.375 24.6667V29.2917C32.375 30.1094 32.0501 30.8937 31.4719 31.4719C30.8937 32.0501 30.1094 32.375 29.2917 32.375H23.125C22.7161 32.375 22.324 32.2126 22.0349 31.9235C21.7458 31.6343 21.5833 31.2422 21.5833 30.8333C21.5833 30.4245 21.7458 30.0323 22.0349 29.7432C22.324 29.4541 22.7161 29.2917 23.125 29.2917H29.2917V24.6667C29.2917 24.2578 29.4541 23.8657 29.7432 23.5765C30.0323 23.2874 30.4245 23.125 30.8333 23.125ZM30.8333 16.9583C31.2263 16.9588 31.6042 17.1092 31.8899 17.379C32.1757 17.6487 32.3476 18.0174 32.3706 18.4096C32.3937 18.8019 32.266 19.1882 32.0138 19.4895C31.7616 19.7908 31.4039 19.9845 31.0137 20.0309L30.8333 20.0417H6.16667C5.77373 20.0412 5.39578 19.8908 5.11006 19.621C4.82433 19.3513 4.65239 18.9826 4.62936 18.5903C4.60633 18.1981 4.73396 17.8118 4.98616 17.5105C5.23836 17.2092 5.5961 17.0155 5.98629 16.9691L6.16667 16.9583H30.8333ZM13.875 4.625C14.2839 4.625 14.676 4.78743 14.9651 5.07654C15.2542 5.36566 15.4167 5.75779 15.4167 6.16667C15.4167 6.57554 15.2542 6.96767 14.9651 7.25679C14.676 7.54591 14.2839 7.70833 13.875 7.70833H7.70833V12.3333C7.70833 12.7422 7.54591 13.1343 7.25679 13.4235C6.96767 13.7126 6.57554 13.875 6.16667 13.875C5.75779 13.875 5.36566 13.7126 5.07654 13.4235C4.78743 13.1343 4.625 12.7422 4.625 12.3333V7.70833C4.625 6.89058 4.94985 6.10632 5.52809 5.52809C6.10632 4.94985 6.89058 4.625 7.70833 4.625H13.875ZM29.2917 4.625C30.1094 4.625 30.8937 4.94985 31.4719 5.52809C32.0501 6.10632 32.375 6.89058 32.375 7.70833V12.3333C32.375 12.7422 32.2126 13.1343 31.9235 13.4235C31.6343 13.7126 31.2422 13.875 30.8333 13.875C30.4245 13.875 30.0323 13.7126 29.7432 13.4235C29.4541 13.1343 29.2917 12.7422 29.2917 12.3333V7.70833H23.125C22.7161 7.70833 22.324 7.54591 22.0349 7.25679C21.7458 6.96767 21.5833 6.57554 21.5833 6.16667C21.5833 5.75779 21.7458 5.36566 22.0349 5.07654C22.324 4.78743 22.7161 4.625 23.125 4.625H29.2917Z" fill="#909C98"/>
</g>
<defs>
<clipPath id="clip0_508_180">
<rect width="37" height="37" fill="white"/>
</clipPath>
</defs>
</svg>
