<svg width="40" height="37" viewBox="0 0 40 37" fill="none" xmlns="http://www.w3.org/2000/svg">
<path d="M15 33.9166V13.528C12.4722 12.9114 10.4511 11.62 8.93669 9.65384C7.42224 7.6877 6.66558 5.4975 6.66669 3.08325H10C10 5.21589 10.7434 7.03403 12.23 8.53767C13.7167 10.0413 15.6122 10.7926 17.9167 10.7916H22.0834C22.9167 10.7916 23.6945 10.9329 24.4167 11.2155C25.1389 11.4982 25.7917 11.9093 26.375 12.4489L33.9167 19.4249L31.5834 21.5833L25 15.4937V33.9166H21.6667V24.6666H18.3334V33.9166H15ZM20 9.24992C19.0834 9.24992 18.2984 8.94775 17.645 8.34342C16.9917 7.73909 16.6656 7.01348 16.6667 6.16659C16.6667 5.31867 16.9934 4.59255 17.6467 3.98821C18.3 3.38388 19.0845 3.08223 20 3.08325C20.9167 3.08325 21.7017 3.38542 22.355 3.98975C23.0084 4.59409 23.3345 5.3197 23.3334 6.16659C23.3334 7.0145 23.0067 7.74063 22.3534 8.34496C21.7 8.9493 20.9156 9.25095 20 9.24992Z" fill="#3F2305"/>
</svg>
