<svg width="40" height="37" viewBox="0 0 40 37" fill="none" xmlns="http://www.w3.org/2000/svg">
<path d="M15 33.9166V13.528C12.4722 12.9114 10.4511 11.62 8.93663 9.65384C7.42218 7.6877 6.66552 5.4975 6.66663 3.08325H9.99996C9.99996 5.21589 10.7433 7.03403 12.23 8.53767C13.7166 10.0413 15.6122 10.7926 17.9166 10.7916H22.0833C22.9166 10.7916 23.6944 10.9329 24.4166 11.2155C25.1388 11.4982 25.7916 11.9093 26.375 12.4489L33.9166 19.4249L31.5833 21.5833L25 15.4937V33.9166H21.6666V24.6666H18.3333V33.9166H15ZM20 9.24992C19.0833 9.24992 18.2983 8.94775 17.645 8.34342C16.9916 7.73909 16.6655 7.01348 16.6666 6.16659C16.6666 5.31867 16.9933 4.59255 17.6466 3.98821C18.3 3.38388 19.0844 3.08223 20 3.08325C20.9166 3.08325 21.7016 3.38542 22.355 3.98975C23.0083 4.59409 23.3344 5.3197 23.3333 6.16659C23.3333 7.0145 23.0066 7.74063 22.3533 8.34496C21.7 8.9493 20.9155 9.25095 20 9.24992Z" fill="#909C98"/>
</svg>
