<svg width="37" height="37" viewBox="0 0 37 37" fill="none" xmlns="http://www.w3.org/2000/svg">
<path d="M32.8837 19.9028C33.0225 22.2924 31.9279 24.5895 29.97 25.9924L31.157 28.2895C31.5116 28.9833 31.5579 29.8003 31.2495 30.5249C30.9566 31.2495 30.3554 31.8199 29.6154 32.0666L28.3975 32.452C27.8903 32.6229 27.3428 32.6331 26.8297 32.4814C26.3165 32.3296 25.8626 32.0233 25.53 31.6041L22.2616 27.7499C20.8895 27.5187 19.5945 26.9328 18.5 26.0541C17.7291 26.2853 16.9583 26.4087 16.1875 26.4087C14.8308 26.4087 13.4741 25.9924 12.3333 25.1908C11.5162 25.4374 10.6837 25.5453 9.8358 25.5299C8.61788 25.5453 7.41538 25.2987 6.28997 24.8362C5.2067 24.3528 4.28108 23.5748 3.61869 22.5907C2.9563 21.6067 2.58382 20.4563 2.54372 19.2708C2.42038 18.1608 2.60538 17.0353 3.0833 16.0178C2.63622 14.8616 2.58997 13.5974 2.97538 12.4258C3.5458 10.9612 4.62497 9.74326 5.96622 8.97243C6.86038 6.36701 9.3733 4.62493 12.1329 4.80993C14.5995 2.49743 18.3766 2.25076 21.1208 4.23951C21.7683 4.06993 22.4466 3.97743 23.125 3.97743C25.2216 3.93118 27.2104 4.85618 28.5208 6.50576C31.6658 7.32284 33.9166 10.1287 34.04 13.397C34.117 15.1083 33.6545 16.7887 32.7141 18.2224C32.822 18.7774 32.8837 19.3324 32.8837 19.9028ZM25.1754 17.7291C26.0541 17.837 26.7479 18.4999 26.7479 19.3787C26.7479 19.7876 26.5855 20.1797 26.2963 20.4688C26.0072 20.7579 25.6151 20.9203 25.2062 20.9203H24.235C23.7416 22.3078 22.8783 23.5258 21.7375 24.4508C22.1229 24.5895 22.5237 24.6666 22.9245 24.7745C30.8333 24.6666 29.9083 19.8412 29.9083 19.7641C29.8674 18.7051 29.4075 17.7058 28.6298 16.9859C27.852 16.266 26.8202 15.8845 25.7612 15.9253C25.3523 15.9253 24.9602 15.7629 24.6711 15.4738C24.382 15.1847 24.2195 14.7926 24.2195 14.3837C24.2195 13.9748 24.382 13.5827 24.6711 13.2936C24.9602 13.0044 25.3523 12.842 25.7612 12.842C27.6575 12.8883 29.4766 13.5974 30.895 14.8462C30.972 14.3991 31.0183 13.9366 31.0183 13.4741C30.9258 11.5624 30.0625 9.89743 26.5937 9.57368C24.6666 5.01034 19.8104 7.53868 19.8104 8.95701C19.7641 9.31159 20.1341 10.067 20.1958 10.1133C20.6047 10.1133 20.9968 10.2757 21.2859 10.5648C21.575 10.8539 21.7375 11.2461 21.7375 11.6549C21.7375 12.5028 21.0437 13.1966 20.1958 13.1966C19.3787 13.1658 18.6079 12.8574 17.9912 12.3333C17.2512 12.8112 16.4033 13.1041 15.5245 13.1966C14.6458 13.2737 13.9212 12.657 13.875 11.8091C13.8466 11.6077 13.8596 11.4026 13.9133 11.2065C13.9671 11.0103 14.0603 10.8272 14.1874 10.6684C14.3144 10.5096 14.4726 10.3784 14.6522 10.283C14.8317 10.1875 15.0289 10.1298 15.2316 10.1133C15.4783 10.0824 16.6808 9.89743 16.6808 8.92618C16.6808 7.90868 17.0662 6.93743 17.7291 6.16659C16.3108 5.78118 14.7845 6.28993 13.2429 8.15534C10.4062 7.70826 9.24997 8.09368 8.40205 11.0999C6.93747 11.8245 6.16663 12.3333 5.82747 13.8749C7.49247 13.5358 9.20372 13.6745 10.7916 14.2603C11.5625 14.5533 11.9941 15.4166 11.7012 16.2491C11.4083 17.0508 10.5141 17.4516 9.71247 17.1587C8.58705 16.6653 7.32288 16.6345 6.16663 17.0662C5.6733 17.4824 5.6733 18.3458 5.6733 19.0241C5.6733 20.1649 6.24372 21.2287 7.21497 21.8453C8.03205 22.2616 8.94163 22.4774 9.85122 22.462C9.61997 22.0612 9.41955 21.6449 9.24997 21.2133C9.1286 20.8172 9.16557 20.3894 9.3531 20.0201C9.54063 19.6507 9.8641 19.3684 10.2555 19.2326C10.6469 19.0968 11.0757 19.1181 11.4517 19.292C11.8277 19.4659 12.1216 19.7788 12.2716 20.1649C12.8883 21.9224 14.4608 23.1249 16.3108 23.3253C18.4229 23.2174 20.3037 21.9687 21.2287 20.0416C21.5833 17.9141 23.2945 17.7291 25.1754 17.7291ZM28.2587 29.2453L27.3029 27.2412L26.2083 27.4878L27.75 29.4149L28.2587 29.2453ZM21.09 15.9716C21.1034 15.5778 20.9654 15.1937 20.7045 14.8984C20.4436 14.6031 20.0795 14.4189 19.687 14.3837C18.5925 14.322 17.5287 14.692 16.7116 15.4166C15.8329 16.3108 15.3704 17.5441 15.4166 18.7928C15.4166 19.2017 15.5791 19.5938 15.8682 19.883C16.1573 20.1721 16.5494 20.3345 16.9583 20.3345C17.837 20.3345 18.5 19.6408 18.5 18.7928C18.5 18.3766 18.6079 17.9603 18.8545 17.6212C19.0395 17.467 19.2708 17.3899 19.5175 17.3899C20.3654 17.4362 21.09 16.8041 21.09 15.9716Z" fill="#909C98"/>
</svg>
