<svg width="40" height="40" viewBox="0 0 40 40" fill="none" xmlns="http://www.w3.org/2000/svg">
<g clip-path="url(#clip0_516_559)">
<path d="M35.5556 5.55566H4.44444C3.2657 5.55566 2.13524 6.02392 1.30175 6.85741C0.468253 7.69091 0 8.82137 0 10.0001L0 20.0001H40V10.0001C40 8.82137 39.5317 7.69091 38.6983 6.85741C37.8648 6.02392 36.7343 5.55566 35.5556 5.55566Z" fill="#DC1F26"/>
<path d="M40 30C40 31.1787 39.5317 32.3092 38.6983 33.1427C37.8648 33.9762 36.7343 34.4444 35.5556 34.4444H4.44444C3.2657 34.4444 2.13524 33.9762 1.30175 33.1427C0.468253 32.3092 0 31.1787 0 30V20H40V30Z" fill="#EEEEEE"/>
</g>
<defs>
<clipPath id="clip0_516_559">
<rect width="40" height="40" fill="white"/>
</clipPath>
</defs>
</svg>
