<svg width="40" height="37" viewBox="0 0 40 37" fill="none" xmlns="http://www.w3.org/2000/svg">
<path d="M14.9142 25.7443C15.8544 26.8524 16.71 28.0197 17.475 29.2377C18.0608 30.2925 18.5306 31.3991 18.8775 32.5407C19.1709 33.3038 19.4359 33.5312 20.0042 33.5312C20.6242 33.5312 20.905 33.1443 21.1225 32.5446C21.4627 31.427 21.9195 30.3428 22.4867 29.3071C23.6015 27.5538 24.8711 25.8888 26.2825 24.329C27.7058 22.7739 28.9646 21.096 30.0417 19.3186C30.9017 17.662 31.3447 15.8468 31.3375 14.0091C31.3492 12.3036 30.9107 10.6213 30.06 9.10815" stroke="#3F2305" stroke-linecap="round" stroke-linejoin="round"/>
<path d="M9.77917 18.9456C10.9933 21.5117 13.335 23.7671 14.9192 25.7459L23.335 16.5252C22.9228 16.9719 22.4114 17.3312 21.8356 17.5787C21.2599 17.8263 20.6332 17.9562 19.9983 17.9597C19.4294 17.9621 18.8655 17.8604 18.3392 17.6602C17.813 17.4601 17.3348 17.1656 16.9322 16.7937C16.5295 16.4218 16.2105 15.9798 15.9935 15.4933C15.7764 15.0068 15.6656 14.4854 15.6675 13.9591C15.6818 13.0206 16.032 12.113 16.6633 11.3783M23.4283 3.94285C24.8481 4.35569 26.1654 5.02466 27.3041 5.91111C28.4428 6.79755 29.3803 7.88392 30.0625 9.10744L23.3375 16.5205C23.9653 15.7802 24.3146 14.8705 24.3325 13.9298C24.322 12.8729 23.8627 11.8623 23.0537 11.116C22.2447 10.3697 21.1509 9.94754 20.0083 9.94071C19.3737 9.94869 18.7479 10.0804 18.172 10.3272C17.5961 10.5739 17.0828 10.9303 16.6658 11.3729M11.3208 7.2189C12.3766 6.04341 13.6998 5.09785 15.196 4.44964C16.6922 3.80142 18.3245 3.46651 19.9767 3.46879C21.1445 3.46578 22.306 3.62666 23.4217 3.94594L16.66 11.3768" stroke="#3F2305" stroke-linecap="round" stroke-linejoin="round"/>
<path d="M9.77913 18.9454C9.02555 17.3874 8.64464 15.6973 8.66246 13.9905C8.64982 11.5127 9.59231 9.11178 11.3208 7.21875L16.6633 11.3774L9.77913 18.9454Z" stroke="#3F2305" stroke-linecap="round" stroke-linejoin="round"/>
</svg>
